<svg id="Capa_1" enable-background="new 0 0 511.021 511.021" height="512" viewBox="0 0 511.021 511.021" width="512" xmlns="http://www.w3.org/2000/svg"><g><g><g fill="#efedef"><path d="m471.851 32.935c-21.599 0-39.171 17.572-39.171 39.171v130.344c0 4.143 3.358 7.5 7.5 7.5s7.5-3.357 7.5-7.5v-130.344c0-13.328 10.843-24.171 24.171-24.171 13.266 0 24.07 10.742 24.17 23.985l-8.695 163.998c-.22 4.137 2.956 7.668 7.092 7.887.135.008.27.011.403.011 3.96 0 7.271-3.102 7.483-7.103l8.706-164.21c.007-.133.011-.265.011-.397 0-21.598-17.571-39.171-39.17-39.171z"/><path d="m39.171 34.935c-21.599 0-39.171 17.573-39.171 39.171 0 .144.004.286.012.429l9.471 165.282c.229 3.99 3.535 7.071 7.481 7.071.145 0 .29-.004.436-.013 4.135-.236 7.295-3.781 7.059-7.916l-9.458-165.053c.107-13.236 10.909-23.971 24.17-23.971 13.328 0 24.171 10.843 24.171 24.171v128.344c0 4.143 3.358 7.5 7.5 7.5s7.5-3.357 7.5-7.5v-128.344c0-21.598-17.572-39.171-39.171-39.171z"/></g></g><g><path d="m255.511 448.443c-4.142 0-7.5-3.357-7.5-7.5v-299.859c0-4.143 3.358-7.5 7.5-7.5s7.5 3.357 7.5 7.5v299.859c0 4.143-3.358 7.5-7.5 7.5z" fill="#6cf5c2"/></g><path d="m468.601 183.066-124.28-63.64c-21.774-11.146-45.12-17.92-68.81-20.363v9.181h-40v-7.948l-23.873 10.869-177.913 86.598-.709-4.09-17.445 42.644 110.482 185.629 100.016 48.317c21.709 3.101 91.875-4.652 93.038-4.205s49.62-24.87 49.62-24.87h3.816c23.117-16.208 42.669-37.088 57.339-61.362l64.38-106.49c19.239-31.84 7.449-73.32-25.661-90.27z" fill="#9cf8d2"/><path d="m382.847 432.853c-26.794 15.244-56.186 23.918-85.943 26.07-29.568-2.137-58.776-10.712-85.435-25.78l-.48-.27c-30.47-17.21-55.99-41.99-74.09-71.93l-64.21-106.22c-.095-.157-.189-.314-.283-.472-13.164-22.204-3.481-50.947 20.294-60.999l122.483-51.783c17.141-8.775 35.258-14.827 53.748-18.203v-15.022h-4.029-25.362-4.029v-3.844-5.336c-23.69 2.443-47.036 9.217-68.81 20.363l-116.679 59.747-7.601 3.892c-33.11 16.95-44.9 58.43-25.66 90.27l64.21 106.22c18.1 29.94 43.62 54.72 74.09 71.93l.48.27c25.015 14.138 52.275 22.568 79.97 25.32v-4.713h40v4.75c27.995-2.739 55.55-11.282 80.8-25.647 10.329-5.873 20.089-12.621 29.175-20.142-.874.514-1.758 1.027-2.639 1.529z" fill="#6cf5c2"/><path d="m166.887 307.072h-76.018c-11.925 0-21.593-9.668-21.593-21.593v-61.436c0-11.925 9.667-21.593 21.593-21.593h76.017c28.891 0 52.311 23.42 52.311 52.311.001 28.891-23.42 52.311-52.31 52.311z" fill="#f9f7f8"/><circle cx="166.295" cy="254.761" fill="#efedef" r="22.311"/><g id="XMLID_243_"><path d="m275.511 100.066v55.58c0 6.87-5.57 12.44-12.43 12.44h-15.14c-6.86 0-12.43-5.57-12.43-12.44v-55.58-1.03c13.3-1.37 26.7-1.37 40 0z" fill="#05e39c"/></g><circle cx="455.782" cy="236.317" fill="#f9f7f8" r="15.603"/><path d="m263.081 421.946h-15.14c-6.86 0-12.43 5.56-12.43 12.43v42.71c6.7.67 13.43 1 20.16 1 6.62 0 13.24-.32 19.84-.97v-42.74c0-6.87-5.57-12.43-12.43-12.43z" fill="#00f2a6"/><g><path d="m10.975 260.99-3.392-17.948c.264 6.025 1.365 12.068 3.392 17.948z" fill="#9cf8d2"/></g><path d="m235.511 444.702v32.385c6.7.67 13.43 1 20.16 1 6.62 0 13.24-.32 19.84-.97v-20.889c-13.6-2.445-27.004-6.291-40-11.526z" fill="#05e39c"/></g></svg>