<svg id="flat" height="512" viewBox="0 0 512 512" width="512" xmlns="http://www.w3.org/2000/svg"><path d="m88 256a64 64 0 0 0 -64 64v40h80v136h304v-240z" fill="#548aff"/><path d="m200 224h112a0 0 0 0 1 0 0v40.00006a55.99994 55.99994 0 0 1 -55.99994 55.99994h-.00011a55.99994 55.99994 0 0 1 -55.99995-55.99994v-40.00006a0 0 0 0 1 0 0z" fill="#ffb089"/><path d="m328 88v104a72 72 0 1 1 -144 0v-104l32-24h80z" fill="#ffceb6"/><circle cx="224" cy="144" fill="#91591c" r="8"/><circle cx="288" cy="144" fill="#91591c" r="8"/><g fill="#ffbfa1"><path d="m248 192h-16v-16h16a8.00917 8.00917 0 0 0 8-8v-16h16v16a24.0275 24.0275 0 0 1 -24 24z"/><path d="m280.33008 230.92993-30.66016-35.03a24.00647 24.00647 0 0 0 -35.02978-1.16993l-25.07007 25.07007a72.02549 72.02549 0 0 0 101.9397 34.84009 47.63737 47.63737 0 0 0 -11.17969-23.71023z"/><path d="m296 64h-14.58984a48.17942 48.17942 0 0 0 8.4497 56.48l38.14014 38.14988v-70.62988z"/></g><rect fill="#4f7ff7" height="45.092" rx="8" transform="matrix(.747 -.664 .664 .747 -160.438 315.712)" width="16" x="326.979" y="346.305"/><path d="m24 360v4.11782a67.88218 67.88218 0 0 0 67.88218 67.88218h.0001a67.88218 67.88218 0 0 0 48-19.88223l126.94857-126.94862a32 32 0 0 0 1.455-43.69956l-30.655-35.03424a8 8 0 0 0 -11.67746-.38882l-49.95339 49.95347-11.90031-23.80063a14.8328 14.8328 0 0 0 -13.26687-8.19937 14.8328 14.8328 0 0 0 -14.83282 14.8328v73.1672l-48 48z" fill="#ffceb6"/><rect fill="#ffbfa1" height="16.001" rx="8.001" transform="matrix(.707 -.707 .707 .707 -100.421 234.896)" width="49.027" x="208.82" y="230.666"/><rect fill="#ffbfa1" height="16.001" rx="8.001" transform="matrix(.707 -.707 .707 .707 -111.472 253.75)" width="52.515" x="224.309" y="253.433"/><path d="m328 80.08008v47.91992l-25.6001-19.19995a15.98957 15.98957 0 0 1 -6.3999-12.80005v-16h-80v24l-32 24v-48a32.00409 32.00409 0 0 1 32-32h16a24.00619 24.00619 0 0 1 24-24h15.91992a56.08258 56.08258 0 0 1 56.08008 56.08008z" fill="#b1712c"/><path d="m349.95744 385.70213 12.63037 14.20917a71.77031 71.77031 0 0 0 53.64179 24.0887h.00011a71.77029 71.77029 0 0 0 71.77029-71.77029v-.00009a118.15532 118.15532 0 0 0 -4.376-31.85816l-51.624-184.37146v-73.1672a14.8328 14.8328 0 0 0 -14.8328-14.8328 14.8328 14.8328 0 0 0 -13.26686 8.19937l-11.90034 23.80063-43.90693-43.90693a16 16 0 0 0 -23.35494.77763l-25.024 28.59889a32 32 0 0 0 1.455 43.69956l66.83087 66.83085 32 168z" fill="#ffceb6"/><rect fill="#ffbfa1" height="49.006" rx="8.001" transform="matrix(.707 -.707 .707 .707 53.707 255.007)" width="16.001" x="326.673" y="38.171"/><rect fill="#ffbfa1" height="52.757" rx="8.001" transform="matrix(.707 -.707 .707 .707 32.599 249.396)" width="16.001" x="309.347" y="58.969"/><path d="m232 48v32h-16v24l-32 24v-48a32.00409 32.00409 0 0 1 32-32z" fill="#a36522"/></svg>